<?xml version="1.0" ?><!DOCTYPE svg  PUBLIC '-//W3C//DTD SVG 1.1//EN'  'http://www.w3.org/Graphics/SVG/1.1/DTD/svg11.dtd'><svg height="512px" style="enable-background:new 0 0 512 512;" version="1.1" viewBox="0 0 512 512" width="512px" xml:space="preserve" xmlns="http://www.w3.org/2000/svg" xmlns:xlink="http://www.w3.org/1999/xlink"><g id="C_-_76_x2C__Resume_x2C__Application_x2C__clipboard_x2C__curriculum_x2C__cv"><g><path d="M256,242.379c17.228,0,31.242-13.938,31.242-31.07c0-17.13-14.015-31.067-31.242-31.067    c-17.223,0-31.235,13.937-31.235,31.067C224.765,228.442,238.777,242.379,256,242.379z"/><path d="M314.183,292.458c0-12.59-10.301-22.832-22.963-22.832h-70.16c-12.811,0-23.233,10.365-23.233,23.104v30.093h116.356    V292.458z"/><path d="M323.164,95.115V72.981h-40.217c-2.588,0-4.686-2.098-4.686-4.686c0-12.201-9.986-22.126-22.262-22.126    c-12.27,0-22.252,9.926-22.252,22.126c0,2.588-2.098,4.686-4.686,4.686h-40.216v22.134v22.125h134.318V95.115z"/><path d="M332.535,99.801v22.125c0,2.588-2.098,4.686-4.686,4.686H184.16c-2.587,0-4.686-2.098-4.686-4.686V99.801h-53.497v366.031    h260.044V99.801H332.535z M256,170.872c22.395,0,40.613,18.141,40.613,40.438c0,22.299-18.219,40.44-40.613,40.44    c-22.391,0-40.606-18.142-40.606-40.44C215.394,189.012,233.609,170.872,256,170.872z M188.456,292.73    c0-17.907,14.626-32.475,32.604-32.475h70.16c17.829,0,32.334,14.445,32.334,32.202v35.051c0,2.588-2.098,4.686-4.686,4.686    H193.142c-2.588,0-4.686-2.098-4.686-4.686V292.73z M256,433.248h-98.779c-2.588,0-4.686-2.097-4.686-4.686    c0-2.588,2.098-4.686,4.686-4.686H256c2.588,0,4.686,2.098,4.686,4.686C260.686,431.151,258.588,433.248,256,433.248z     M354.787,399.876H157.221c-2.588,0-4.686-2.097-4.686-4.686c0-2.588,2.098-4.686,4.686-4.686h197.566    c2.588,0,4.686,2.098,4.686,4.686C359.473,397.779,357.375,399.876,354.787,399.876z M354.787,366.506H157.221    c-2.588,0-4.686-2.098-4.686-4.686s2.098-4.686,4.686-4.686h197.566c2.588,0,4.686,2.098,4.686,4.686    S357.375,366.506,354.787,366.506z"/></g></g><g id="Layer_1"/></svg>